<?xml version="1.0" encoding="iso-8859-1"?>
<!-- Generator: Adobe Illustrator 17.1.0, SVG Export Plug-In . SVG Version: 6.00 Build 0)  -->
<!DOCTYPE svg PUBLIC "-//W3C//DTD SVG 1.1//EN" "http://www.w3.org/Graphics/SVG/1.1/DTD/svg11.dtd">
<svg version="1.1" id="Capa_1" xmlns="http://www.w3.org/2000/svg" xmlns:xlink="http://www.w3.org/1999/xlink" x="0px" y="0px"
	 viewBox="0 0 299 299" style="enable-background:new 0 0 299 299;" xml:space="preserve">
<g>
	<path d="M291.333,197.526H162v-105c0-6.627-5.373-12-12-12s-12,5.373-12,12v105H8.333c-4.418,0-8.333,3.582-8.333,8v77
		c0,4.418,3.915,8,8.333,8h283c4.418,0,7.667-3.582,7.667-8v-77C299,201.108,295.751,197.526,291.333,197.526z M50.833,260.026
		c-8.837,0-16-7.163-16-16s7.163-16,16-16c8.837,0,16,7.163,16,16S59.67,260.026,50.833,260.026z M98.833,260.026
		c-8.837,0-16-7.163-16-16s7.163-16,16-16c8.837,0,16,7.163,16,16S107.67,260.026,98.833,260.026z M249.333,260.526h-99
		c-8.837,0-16-7.163-16-16c0-4.841,2.158-9.17,5.556-12.104c2.804-2.422,6.448-3.896,10.444-3.896h99c8.837,0,16,7.163,16,16
		S258.17,260.526,249.333,260.526z"/>
	<path d="M257.611,90.859c0,23.383-9.105,45.365-25.641,61.899c-4.687,4.686-4.687,12.284,0,16.971
		c2.343,2.343,5.414,3.515,8.485,3.515c3.07,0,6.143-1.172,8.485-3.515c21.067-21.066,32.67-49.077,32.67-78.87
		c0-29.794-11.603-57.805-32.67-78.871c-4.688-4.685-12.285-4.685-16.971,0c-4.687,4.687-4.687,12.284,0,16.971
		C248.506,45.493,257.611,67.475,257.611,90.859z"/>
	<path d="M201.197,143.528c2.343,2.343,5.414,3.515,8.485,3.515c3.07,0,6.142-1.172,8.485-3.515
		c14.068-14.068,21.817-32.773,21.817-52.669c0-19.896-7.749-38.603-21.817-52.67c-4.688-4.688-12.285-4.686-16.971,0
		c-4.687,4.687-4.687,12.285,0,16.971c9.536,9.535,14.788,22.213,14.788,35.699c0,13.485-5.252,26.163-14.788,35.698
		C196.511,131.243,196.511,138.842,201.197,143.528z"/>
	<path d="M59.544,173.244c3.071,0,6.143-1.172,8.485-3.515c4.686-4.687,4.686-12.285,0-16.971
		c-16.535-16.534-25.641-38.517-25.641-61.899c0-23.384,9.105-45.366,25.641-61.9c4.686-4.686,4.686-12.284,0-16.971
		c-4.686-4.685-12.285-4.685-16.971,0c-21.067,21.066-32.67,49.077-32.67,78.871c0,29.793,11.602,57.804,32.67,78.87
		C53.402,172.072,56.473,173.244,59.544,173.244z"/>
	<path d="M81.832,143.528c2.344,2.344,5.414,3.515,8.485,3.515c3.071,0,6.143-1.172,8.485-3.515c4.687-4.687,4.687-12.285,0-16.971
		c-9.536-9.535-14.788-22.213-14.788-35.698c0-13.486,5.252-26.164,14.788-35.699c4.687-4.686,4.687-12.284,0-16.971
		c-4.685-4.685-12.283-4.687-16.971,0c-14.068,14.067-21.817,32.773-21.817,52.67C60.015,110.755,67.764,129.46,81.832,143.528z"/>
</g>
<g>
</g>
<g>
</g>
<g>
</g>
<g>
</g>
<g>
</g>
<g>
</g>
<g>
</g>
<g>
</g>
<g>
</g>
<g>
</g>
<g>
</g>
<g>
</g>
<g>
</g>
<g>
</g>
<g>
</g>
</svg>
