<?xml version="1.0" encoding="iso-8859-1"?>
<!-- Generator: Adobe Illustrator 16.0.0, SVG Export Plug-In . SVG Version: 6.00 Build 0)  -->
<!DOCTYPE svg PUBLIC "-//W3C//DTD SVG 1.1//EN" "http://www.w3.org/Graphics/SVG/1.1/DTD/svg11.dtd">
<svg version="1.1" id="Capa_1" xmlns="http://www.w3.org/2000/svg" xmlns:xlink="http://www.w3.org/1999/xlink" x="0px" y="0px"
	 width="575.293px" height="575.292px" viewBox="0 0 575.293 575.292" style="enable-background:new 0 0 575.293 575.292;"
	 xml:space="preserve">
<g>
	<path d="M567.152,290.817l-46.389-1.934v-51.445c0-3.941-2.73-7.381-6.586-8.262l-76.402-17.503v-68.385
		c0-3.415-2.068-6.5-5.213-7.821L290.896,76.433c0,0-1.42-0.625-3.244-0.637c-1.824-0.012-3.28,0.637-3.28,0.637l-141.666,59.034
		c-3.158,1.31-5.214,4.394-5.214,7.821v68.385L61.09,229.176c-3.855,0.881-6.585,4.309-6.585,8.262v51.445l-46.39,1.934
		C3.574,291,0,294.734,0,299.275v98.691c0,3.659,2.326,6.891,5.79,8.041l279.17,93.062c0,0,1.212,0.403,2.644,0.428
		c1.443,0.013,2.717-0.428,2.717-0.428l279.17-93.062c3.465-1.15,5.803-4.382,5.803-8.029v-98.703
		C575.279,294.734,571.693,291,567.152,290.817z M57.785,374.759c0,0.856-0.379,1.664-1.041,2.203
		c-0.514,0.403-1.138,0.637-1.787,0.637c-0.196,0-0.392-0.024-0.575-0.062l-40.722-8.494c-1.31-0.282-2.252-1.42-2.252-2.767
		v-16.818c0-0.808,0.355-1.603,0.979-2.142c0.612-0.526,1.444-0.771,2.252-0.661l40.723,5.937c1.383,0.208,2.411,1.396,2.411,2.803
		v19.364H57.785z M57.785,336.056c0,0.783-0.331,1.542-0.906,2.081c-0.526,0.478-1.212,0.734-1.909,0.734
		c-0.074,0-0.159,0-0.233-0.013l-40.722-3.391c-1.469-0.122-2.595-1.334-2.595-2.803v-16.817c0-0.747,0.306-1.481,0.845-2.008
		c0.539-0.538,1.261-0.832,2.032-0.808l40.723,0.845c1.542,0.036,2.766,1.285,2.766,2.815V336.056z M92.559,360.475
		c0,0.82-0.355,1.604-0.979,2.142c-0.514,0.44-1.175,0.698-1.848,0.698c-0.134,0-0.269-0.013-0.404-0.037l-18.311-2.668
		c-1.396-0.208-2.423-1.396-2.423-2.791v-40.771c0-0.759,0.306-1.481,0.844-2.02c0.539-0.526,1.261-0.82,2.044-0.796l18.311,0.38
		c1.542,0.036,2.766,1.272,2.766,2.815V360.475L92.559,360.475z M92.559,295.897c0,1.518-1.2,2.766-2.705,2.827l-18.311,0.759
		c-0.037,0-0.073,0-0.123,0c-0.734,0-1.432-0.281-1.958-0.796c-0.551-0.526-0.869-1.272-0.869-2.031v-40.772
		c0-1.383,1.003-2.558,2.362-2.791l18.311-3.047c0.82-0.147,1.652,0.098,2.289,0.624c0.637,0.539,1.004,1.322,1.004,2.167V295.897z
		 M136.121,366.839c0,0.809-0.355,1.604-0.979,2.143c-0.526,0.44-1.175,0.686-1.848,0.686c-0.135,0-0.27-0.013-0.404-0.024
		l-23.084-3.366c-1.383-0.208-2.411-1.384-2.411-2.803v-45.606c0-0.759,0.306-1.493,0.844-2.02c0.539-0.539,1.273-0.845,2.032-0.809
		l23.084,0.49c1.53,0.024,2.766,1.272,2.766,2.815V366.839L136.121,366.839z M136.121,294.073c0,1.518-1.187,2.767-2.705,2.815
		l-23.084,0.967c-0.037,0-0.073,0-0.123,0c-0.722,0-1.432-0.281-1.958-0.783c-0.551-0.538-0.869-1.273-0.869-2.044v-45.607
		c0-1.383,1.003-2.558,2.362-2.791l23.072-3.843c0.82-0.135,1.652,0.098,2.289,0.636c0.636,0.539,1.003,1.322,1.003,2.154v48.495
		H136.121z M267.505,385.996c0,0.808-0.355,1.604-0.979,2.13c-0.514,0.452-1.175,0.697-1.848,0.697
		c-0.134,0-0.269-0.012-0.416-0.024l-105.19-15.349c-1.383-0.208-2.412-1.384-2.412-2.804v-51.763c0-0.759,0.306-1.493,0.845-2.02
		c0.551-0.538,1.285-0.845,2.032-0.808l105.191,2.203c1.53,0.024,2.766,1.272,2.766,2.815v64.921H267.505z M267.505,288.601
		c0,1.519-1.188,2.767-2.705,2.815l-105.19,4.382c-0.037,0-0.074,0-0.11,0c-0.734,0-1.432-0.269-1.958-0.783
		c-0.551-0.526-0.869-1.272-0.869-2.031v-51.776c0-1.383,1.003-2.558,2.362-2.791l105.19-17.54c0.82-0.135,1.652,0.098,2.289,0.636
		c0.637,0.539,1.004,1.322,1.004,2.154v64.933H267.505z M267.505,191.208c0,1.322-0.906,2.46-2.191,2.766l-105.19,24.113
		c-0.208,0.037-0.417,0.062-0.625,0.062c-0.636,0-1.261-0.208-1.763-0.612c-0.673-0.539-1.064-1.346-1.064-2.215v-51.775
		c0-1.199,0.759-2.264,1.885-2.656l105.19-37.259c0.869-0.306,1.824-0.184,2.57,0.355c0.747,0.526,1.188,1.383,1.188,2.313V191.208z
		 M353.943,380.083c0,1.396-1.027,2.595-2.41,2.803l-40.527,5.912c-0.135,0.013-0.281,0.024-0.416,0.024
		c-0.674,0-1.322-0.232-1.848-0.697c-0.625-0.526-0.98-1.31-0.98-2.13v-64.934c0-1.542,1.225-2.791,2.768-2.815l40.539-0.844
		c0.758-0.05,1.492,0.269,2.031,0.795c0.539,0.539,0.844,1.273,0.844,2.02V380.083z M353.943,290.291
		c0,0.783-0.305,1.506-0.869,2.044c-0.525,0.502-1.234,0.796-1.957,0.796c-0.037,0-0.074,0-0.123-0.012l-40.539-1.689
		c-1.506-0.062-2.705-1.298-2.705-2.815V223.68c0-0.82,0.367-1.616,1.004-2.154s1.469-0.759,2.289-0.636l40.539,6.756
		c1.359,0.22,2.361,1.408,2.361,2.803V290.291L353.943,290.291z M353.943,200.51c0,0.857-0.391,1.677-1.064,2.203
		c-0.502,0.404-1.125,0.625-1.762,0.625c-0.209,0-0.43-0.024-0.637-0.074l-40.539-9.29c-1.285-0.293-2.191-1.432-2.191-2.766
		v-64.921c0-0.918,0.441-1.787,1.199-2.313c0.748-0.539,1.715-0.673,2.57-0.355l40.539,14.357c1.127,0.392,1.885,1.469,1.885,2.668
		V200.51L353.943,200.51z M418.607,370.646c0,1.408-1.027,2.596-2.41,2.804l-29.988,4.369c-0.135,0.024-0.27,0.037-0.404,0.037
		c-0.674,0-1.334-0.245-1.848-0.698c-0.625-0.538-0.98-1.31-0.98-2.142v-55.521c0-1.542,1.236-2.803,2.768-2.815l29.988-0.637
		c0.77-0.061,1.48,0.282,2.031,0.809c0.539,0.525,0.844,1.26,0.844,2.02V370.646z M418.607,292.996c0,0.759-0.305,1.506-0.869,2.032
		c-0.525,0.514-1.236,0.783-1.957,0.783c-0.037,0-0.074,0-0.111,0l-29.988-1.248c-1.518-0.062-2.717-1.311-2.717-2.828v-55.521
		c0-0.832,0.367-1.628,1.004-2.154c0.637-0.539,1.469-0.783,2.289-0.636l29.988,4.994c1.359,0.233,2.361,1.396,2.361,2.791V292.996
		L418.607,292.996z M418.607,215.32c0,0.857-0.391,1.677-1.064,2.215c-0.514,0.404-1.125,0.612-1.762,0.612
		c-0.209,0-0.416-0.025-0.625-0.062l-29.988-6.879c-1.285-0.293-2.203-1.444-2.203-2.766v-55.521c0-0.918,0.453-1.787,1.199-2.313
		c0.76-0.526,1.715-0.661,2.57-0.355l29.988,10.625c1.127,0.392,1.885,1.457,1.885,2.656V215.32L418.607,215.32z M506.676,357.807
		c0,1.395-1.029,2.595-2.424,2.79l-61.873,9.021c-0.135,0.012-0.281,0.024-0.416,0.024c-0.674,0-1.336-0.232-1.85-0.686
		c-0.623-0.539-0.979-1.322-0.979-2.143v-24.247c0-1.469,1.125-2.692,2.582-2.827l61.873-5.153c0.783-0.073,1.566,0.208,2.143,0.747
		c0.576,0.525,0.918,1.285,0.918,2.08v20.393H506.676z M506.676,317.036c0,1.542-1.236,2.803-2.768,2.814l-61.873,1.298
		c-0.012,0-0.037,0-0.061,0c-0.734,0-1.445-0.281-1.982-0.796c-0.539-0.538-0.846-1.272-0.846-2.02v-24.247
		c0-0.759,0.307-1.506,0.869-2.032c0.551-0.538,1.311-0.808,2.068-0.783l61.873,2.583c1.518,0.061,2.705,1.297,2.705,2.814v20.368
		H506.676z M506.676,276.263c0,0.796-0.344,1.567-0.943,2.105c-0.514,0.465-1.199,0.734-1.885,0.734
		c-0.098,0-0.195-0.012-0.293-0.024l-61.875-6.438c-1.432-0.147-2.533-1.358-2.533-2.803V245.59c0-0.82,0.367-1.616,1.004-2.154
		s1.469-0.759,2.289-0.636l61.873,10.318c1.359,0.233,2.363,1.396,2.363,2.791V276.263L506.676,276.263z M544.938,370.23
		c0,1.322-0.943,2.485-2.252,2.767l-14.174,2.95c-0.197,0.036-0.381,0.061-0.576,0.061c-0.648,0-1.273-0.232-1.787-0.636
		c-0.66-0.539-1.039-1.335-1.039-2.191v-18.887c0-1.395,1.027-2.595,2.422-2.79l14.174-2.069c0.809-0.122,1.641,0.135,2.254,0.661
		c0.623,0.539,0.979,1.322,0.979,2.143V370.23z M544.938,334.245c0,1.469-1.127,2.692-2.596,2.803l-14.174,1.188
		c-0.072,0.013-0.158,0.013-0.232,0.013c-0.709,0-1.395-0.258-1.908-0.747c-0.576-0.539-0.92-1.285-0.92-2.081v-18.886
		c0-1.53,1.236-2.791,2.768-2.815l14.174-0.294c0.746-0.049,1.492,0.27,2.043,0.808c0.539,0.526,0.846,1.261,0.846,2.008V334.245z
		 M569.625,365.078c0,1.334-0.941,2.496-2.252,2.766l-11.799,2.46c-0.197,0.037-0.381,0.062-0.576,0.062
		c-0.648,0-1.273-0.22-1.787-0.637c-0.66-0.538-1.039-1.334-1.039-2.19v-17.186c0-1.407,1.027-2.595,2.422-2.79l11.787-1.727
		c0.809-0.122,1.641,0.123,2.266,0.661c0.623,0.539,0.979,1.31,0.979,2.143V365.078L569.625,365.078z M569.625,332.188
		c0,1.457-1.125,2.693-2.582,2.804l-11.799,0.979c-0.074,0.013-0.16,0.013-0.234,0.013c-0.709,0-1.383-0.257-1.908-0.734
		c-0.576-0.539-0.918-1.298-0.918-2.081v-17.185c0-1.543,1.236-2.804,2.766-2.828l11.799-0.257c0.76-0.049,1.494,0.27,2.033,0.808
		c0.537,0.526,0.844,1.261,0.844,2.008V332.188z"/>
</g>
<g>
</g>
<g>
</g>
<g>
</g>
<g>
</g>
<g>
</g>
<g>
</g>
<g>
</g>
<g>
</g>
<g>
</g>
<g>
</g>
<g>
</g>
<g>
</g>
<g>
</g>
<g>
</g>
<g>
</g>
</svg>
