<?xml version="1.0" encoding="iso-8859-1"?>
<!-- Generator: Adobe Illustrator 16.0.0, SVG Export Plug-In . SVG Version: 6.00 Build 0)  -->
<!DOCTYPE svg PUBLIC "-//W3C//DTD SVG 1.1//EN" "http://www.w3.org/Graphics/SVG/1.1/DTD/svg11.dtd">
<svg version="1.1" id="Capa_1" xmlns="http://www.w3.org/2000/svg" xmlns:xlink="http://www.w3.org/1999/xlink" x="0px" y="0px"
	 width="31.807px" height="31.807px" viewBox="0 0 31.807 31.807" style="enable-background:new 0 0 31.807 31.807;"
	 xml:space="preserve">
<g>
	<g>
		<path d="M16.373,25.265l0.377-7.334l0.993-0.175c0.028,0.058,0.05,0.113,0.082,0.173c0.274,0.518,0.29,1.33,0.305,2.19
			c0.024,1.429,0.052,2.905,1.259,3.397c0.861,0.352,1.574,0.512,2.229,0.547v0.766h6.016v-2.895h-0.375v-0.756h-4.924v0.756h-0.717
			v1.883c-0.623-0.035-1.304-0.193-2.136-0.532c-1.055-0.429-1.078-1.822-1.103-3.171c-0.017-0.893-0.03-1.733-0.334-2.303
			c-0.019-0.035-0.03-0.066-0.048-0.102l4.521-0.792l-0.004-0.006l1.92-0.355L22.2,10.215l-1.488,0.54
			c0.131-0.89,0.144-1.776,0.085-2.48c-0.115-1.384-0.771-2.156-2.025-2.533c-0.095-0.027-0.205-0.026-0.27,0.065
			c-0.016,0.021-0.133,0.078-0.234,0.156c-0.031,0.013-0.061,0.034-0.086,0.07c-0.008,0.01-0.017,0.027-0.022,0.041
			c-0.005,0.003-0.007,0.006-0.009,0.008c-0.002,0.006-0.002,0.01-0.006,0.016c-0.207,0.43-0.593,2.199-0.225,2.43
			c0.164,0.104,0.217,0.158,0.398,0.162c0.723,0.025,0.72,0.51,0.605,1.177c-0.146,0.857-0.109,2.086-1.24,1.8
			c-0.078-0.02-0.16,0.027-0.211,0.082c-0.41,0.445-0.888,1.568-0.709,2.365c0.086,0.377,0.361,0.535,0.694,0.574
			c-0.013,0.154-0.03,0.309-0.05,0.466c-0.004,0.026-0.008,0.054-0.01,0.08l-1.041,0.13h-2.813l-1.902,2.208l-1.841-2.208
			l-4.048,0.734l-0.258,8.993h1.716l0.009,0.174H0v1.918h31.807v-1.918H16.373L16.373,25.265z M17.656,15.186
			c0.021-0.163,0.039-0.323,0.052-0.485c0.425-0.021,0.89-0.192,1.174-0.373c0.716-0.455,1.183-1.24,1.483-2.129l0.869,2.557
			l-3.58,0.447C17.654,15.196,17.654,15.191,17.656,15.186z"/>
		<circle cx="11.729" cy="9.619" r="4.995"/>
	</g>
</g>
<g>
</g>
<g>
</g>
<g>
</g>
<g>
</g>
<g>
</g>
<g>
</g>
<g>
</g>
<g>
</g>
<g>
</g>
<g>
</g>
<g>
</g>
<g>
</g>
<g>
</g>
<g>
</g>
<g>
</g>
</svg>
